<svg width="5000" height="5000" viewBox="0 0 5000 5000" fill="none" xmlns="http://www.w3.org/2000/svg">
<path d="M2498.54 3257.99L3252.85 4564.5H1744.23L2498.54 3257.99Z" fill="white"/>
<path d="M2514.25 3261.24L4022.87 3261.24L3268.56 4567.75L2514.25 3261.24Z" fill="white"/>
<path d="M2483.62 3261.24L974.998 3261.24L1729.31 4567.75L2483.62 3261.24Z" fill="white"/>
<path d="M3267.45 1940.07L4022.38 3246.57H2512.52L3267.45 1940.07Z" fill="white"/>
<path d="M1728.2 1940.07L973.272 3246.57H2483.13L1728.2 1940.07Z" fill="white"/>
<path d="M965.717 615L210.788 1921.5H1720.65L965.717 615Z" fill="white"/>
<path d="M4034.22 615L3279.29 1921.5H4789.15L4034.22 615Z" fill="white"/>
<path d="M4034.22 3239.43L4789.15 1931.86H3279.29L4034.22 3239.43Z" fill="white"/>
<path d="M965.717 3239.43L210.788 1931.86H1720.65L965.717 3239.43Z" fill="white"/>
</svg>
