<svg width="100" height="100" viewBox="0 0 100 100" fill="none" xmlns="http://www.w3.org/2000/svg">
<g clip-path="url(#clip0_3_41)">
<path d="M52.1344 55.0625C52.3125 51.725 53.9562 48.7781 56.4125 46.6969C59.0066 44.5506 62.2738 43.3867 65.6406 43.4094C69.175 43.4094 72.4281 44.6625 74.8531 46.6969C77.3125 48.7812 78.9375 51.725 79.1312 55.0625C79.3094 58.4781 77.9437 61.6719 75.5187 64.0281C72.8604 66.5673 69.3166 67.9698 65.6406 67.9375C61.954 67.9718 58.3988 66.5697 55.7281 64.0281C53.3187 61.6687 51.9375 58.4781 52.1312 55.0625H52.1344ZM30.6344 61.8C30.6469 63.1031 31.0719 65.6406 31.6875 67.625C33.0362 71.8892 35.3029 75.806 38.3281 79.1C41.5683 82.6653 45.5214 85.51 49.9312 87.45C54.7374 89.5623 59.9345 90.6388 65.1844 90.6094C70.4363 90.6254 75.6326 89.5339 80.4344 87.4062C84.8407 85.4447 88.7918 82.5896 92.0375 79.0219C95.0507 75.7086 97.3108 71.7822 98.6625 67.5125C99.9646 63.3746 100.32 58.9969 99.7031 54.7031C99.1212 50.5909 97.6784 46.6478 95.4687 43.1312C93.4323 39.8509 90.8182 36.9668 87.7531 34.6187L56.4406 10.5594C54.3906 8.98124 50.9406 8.99686 48.6937 10.5594C46.4156 12.1562 46.1531 14.7937 48.1687 16.4687L61.1937 27.0656L21.4312 27.1156C18.1406 27.1156 15.0031 29.2625 14.3656 32C13.7312 34.7656 15.9437 37.0625 19.3625 37.075L39.4969 37.0469L3.43123 64.7125C0.0468559 67.3 -1.04377 71.6281 1.09061 74.35C3.25311 77.1344 7.86248 77.1344 11.2937 74.3656L30.8906 58.3312C30.8906 58.3312 30.6 60.4969 30.6312 61.7969L30.6344 61.8ZM81.0031 69.0406C76.9531 73.1625 71.3031 75.5031 65.1875 75.5031C59.0656 75.5187 53.4 73.2062 49.3656 69.1062C47.4575 67.185 45.9856 64.8753 45.05 62.3344C44.1938 59.9465 43.8558 57.4037 44.0583 54.875C44.2609 52.3464 44.9995 49.8898 46.225 47.6687C47.4484 45.4775 49.0774 43.5389 51.025 41.9562C54.95 38.7687 59.9469 37.0437 65.1875 37.0281C70.4094 37.0281 75.4094 38.7375 79.3281 41.925C81.2846 43.4937 82.9152 45.4301 84.1281 47.625C85.35 49.8031 86.1 52.2281 86.3125 54.7375C86.5393 57.2912 86.201 59.8636 85.3219 62.2719C84.3799 64.8097 82.9088 67.1181 81.0062 69.0437L81.0031 69.0406Z" fill="#007AFF"/>
</g>
<defs>
<clipPath id="clip0_3_41">
<rect width="100" height="100" fill="white"/>
</clipPath>
</defs>
</svg>
