<svg width="100" height="100" viewBox="0 0 100 100" fill="none" xmlns="http://www.w3.org/2000/svg">
<path d="M49.0417 46.8333H41.4833V34.175H50.45C55.325 34.175 58.0917 36.35 58.0917 40.2833C58.0917 44.4833 54.8708 46.8333 49.0333 46.8333H49.0417ZM50.3917 51.8583H41.4875V65.8083H50.7833C56.8625 65.8083 60.0833 63.3708 60.0833 58.7875C60.0833 54.2042 56.7708 51.8583 50.3917 51.8583V51.8583ZM100 47.4583V52.5333C95.3 52.9833 92.4292 56.4667 90.725 61.9833C89.0292 67.4792 88.7958 74.2208 88.975 79.425C89.1625 84.8417 84.9417 89.8417 79.2375 89.8417H20.7708C15.0625 89.8417 10.8417 84.8417 11.0333 79.425C11.2125 74.2208 10.9792 67.4792 9.28333 61.9833C7.575 56.4667 4.7 52.9833 0 52.5333V47.4583C4.7 47.0083 7.57917 43.525 9.27917 38.0083C10.9792 32.5125 11.2125 25.7708 11.0292 20.5667C10.8417 15.15 15.0625 10.15 20.7708 10.15H79.2375C84.9458 10.15 89.1625 15.15 88.975 20.5667C88.7958 25.7708 89.0292 32.5125 90.725 38.0083C92.4292 43.525 95.3 47.0083 100 47.4583ZM66.9708 59.1958C66.9708 53.5542 63 49.475 57.1042 48.8292V48.5917C61.4375 47.8875 64.8375 43.8625 64.8375 39.3708C64.8375 32.9667 59.7833 28.7958 52.0792 28.7958H34.7458V71.1792H52.1667C61.4083 71.1792 66.9708 66.6542 66.9708 59.1958V59.1958Z" fill="#007AFF"/>
</svg>
