<svg width="100" height="100" viewBox="0 0 100 100" fill="none" xmlns="http://www.w3.org/2000/svg">
<path d="M39.5833 58.3333V54.1667H45.8333V56.25H54.1667V52.0833H43.75C41.4583 52.0833 39.5833 50.2083 39.5833 47.9167V41.6667C39.5833 39.375 41.4583 37.5 43.75 37.5H56.25C58.5417 37.5 60.4167 39.375 60.4167 41.6667V45.8333H54.1667V43.75H45.8333V47.9167H56.25C58.5417 47.9167 60.4167 49.7917 60.4167 52.0833V58.3333C60.4167 60.625 58.5417 62.5 56.25 62.5H43.75C41.4583 62.5 39.5833 60.625 39.5833 58.3333ZM70.8333 62.5H83.3333C85.625 62.5 87.5 60.625 87.5 58.3333V52.0833C87.5 49.7917 85.625 47.9167 83.3333 47.9167H72.9167V43.75H81.25V45.8333H87.5V41.6667C87.5 39.375 85.625 37.5 83.3333 37.5H70.8333C68.5417 37.5 66.6667 39.375 66.6667 41.6667V47.9167C66.6667 50.2083 68.5417 52.0833 70.8333 52.0833H81.25V56.25H72.9167V54.1667H66.6667V58.3333C66.6667 60.625 68.5417 62.5 70.8333 62.5ZM33.3333 41.6667C33.3333 39.375 31.4583 37.5 29.1667 37.5H16.6667C14.375 37.5 12.5 39.375 12.5 41.6667V58.3333C12.5 60.625 14.375 62.5 16.6667 62.5H29.1667C31.4583 62.5 33.3333 60.625 33.3333 58.3333V54.1667H27.0833V56.25H18.75V43.75H27.0833V45.8333H33.3333V41.6667Z" fill="#007AFF"/>
</svg>
