<svg width="100" height="100" viewBox="0 0 100 100" fill="none" xmlns="http://www.w3.org/2000/svg">
<path d="M90.2417 69.7599C91.3856 70.1386 92.3717 70.7838 93.0799 71.6171C93.7157 72.3987 94.1622 73.3429 94.4423 74.4497C94.5936 75.1001 94.7753 75.7004 94.9721 76.2631C95.343 77.3177 95.9016 78.3208 96.6296 79.2396C96.9853 79.6961 97.4622 80.1963 98.0525 80.7529C98.5596 81.2094 99.0137 81.7971 99.4149 82.51C99.7847 83.1513 99.9835 83.8508 99.9977 84.561C100.027 85.2438 99.7792 85.9151 99.2938 86.4682C98.8 87.0053 98.1984 87.4685 97.5151 87.8377C96.6069 88.3567 95.6608 88.8132 94.6769 89.2071C93.693 89.5948 92.709 90.0013 91.7251 90.4265C90.2539 91.0057 88.8482 91.6921 87.5245 92.4775C86.3438 93.1966 85.1555 94.1033 83.9748 95.2164C82.5983 96.4903 81.0048 97.592 79.2444 98.4867C78.3453 98.9579 77.3691 99.3201 76.3456 99.5623C75.3616 99.7874 74.3777 99.9375 73.3938 100C71.1081 100 69.2159 99.6748 67.7173 99.0245C66.2187 98.3742 64.9169 97.1861 63.8118 95.4602C63.494 94.9662 63.1836 94.6598 62.8658 94.5285C62.3749 94.3567 61.858 94.2409 61.3293 94.1846L55.3425 93.7969C53.3747 93.6718 51.369 93.6031 49.3178 93.6031C47.6144 93.6049 45.9137 93.7179 44.2317 93.9407C42.4985 94.1721 40.7804 94.4472 39.085 94.7724C38.7368 94.8349 38.3811 95.085 38.0254 95.504C37.5825 96.0123 37.0861 96.4873 36.5419 96.9235C35.8046 97.5035 34.9454 97.9676 34.0064 98.2929C32.6684 98.7247 31.2422 98.9392 29.8058 98.9245C28.504 98.9245 27.1038 98.8119 25.6052 98.5868C24.2032 98.3854 22.8475 98.0057 21.5862 97.4612C19.3111 96.4998 16.8827 95.8093 14.3733 95.4102C12.0043 95.0538 9.50663 94.7224 6.86517 94.4347C5.98967 94.3405 5.12064 94.209 4.26154 94.0408C3.46794 93.8925 2.72042 93.6093 2.06663 93.2091C1.46667 92.8425 0.966455 92.376 0.598305 91.8397C0.1947 91.1565 -0.0100551 90.4049 0.000379731 89.6448C0.000379731 88.6318 0.159322 87.6563 0.477206 86.7121C0.79509 85.7741 0.96917 84.7736 1.00701 83.7356C1.00701 83.0165 0.946464 82.3162 0.832934 81.6346C0.707764 80.9047 0.62693 80.17 0.590736 79.4335C0.590736 77.7764 1.06756 76.557 2.01365 75.7691C2.95973 74.9875 4.33723 74.3684 6.15371 73.912C6.96069 73.7102 7.72067 73.3973 8.40161 72.9865C9.02626 72.5972 9.61799 72.1731 10.1727 71.7171C10.7358 71.2496 11.2498 70.7434 11.7091 70.2039C12.1859 69.6473 12.7157 69.0908 13.3061 68.5405C13.4239 68.4154 13.4878 68.2613 13.4878 68.1028C13.4878 67.7089 13.465 67.3337 13.4272 66.9772L13.3061 65.8016C13.3061 63.588 13.7224 61.3619 14.5474 59.1108C15.3799 56.8597 16.4622 54.6711 17.8019 52.5138C19.1395 50.3692 20.6411 48.2973 22.2977 46.3107C23.9477 44.3284 25.5901 42.4837 27.2022 40.7891C29.392 38.5242 31.1294 35.9847 32.3489 33.2666C33.4842 30.6653 34.0821 27.8264 34.12 24.7624C34.12 23.468 34.0443 22.1798 33.8853 20.9105C33.7265 19.6119 33.6482 18.3074 33.6507 17.0023C33.6507 14.3947 34.0064 12.0498 34.7103 9.96748C35.4218 7.87894 36.5268 6.09055 38.0254 4.5898C39.524 3.08904 41.4767 1.96973 43.876 1.21936C46.2904 0.468984 49.1665 0.0625313 52.5118 0C56.5005 0 59.6718 0.650325 62.0408 1.95723C64.4022 3.25788 66.2187 4.96498 67.4751 7.08479C68.7391 9.19835 69.5489 11.562 69.8971 14.1696C70.2604 16.7709 70.4571 19.4097 70.495 22.0798V22.9115C70.495 24.2496 70.5101 25.4377 70.5555 26.4757C70.626 28.5861 71.2076 30.6635 72.2661 32.585C72.8186 33.5918 73.6436 34.6861 74.7486 35.8554C76.6408 37.9127 78.5783 39.9825 80.5462 42.0648C82.514 44.1471 84.3078 46.2981 85.9199 48.5055C87.5396 50.7254 88.8642 53.039 89.8859 55.4465C90.9153 57.8602 91.4451 60.4615 91.4829 63.2629C91.4931 65.4715 91.074 67.6672 90.2417 69.7661V69.7599ZM40.6366 18.8594C41.1815 18.8594 41.6356 18.972 41.9989 19.1971C42.3681 19.4425 42.6526 19.7639 42.8239 20.1288C43.0139 20.5044 43.151 20.8967 43.2326 21.2981C43.3083 21.6921 43.3537 22.0985 43.3537 22.5238C43.3661 22.7923 43.3039 23.0597 43.1721 23.3054C43.0424 23.513 42.862 23.6961 42.6423 23.8432L41.9308 24.3309C41.6772 24.5084 41.4417 24.7029 41.2269 24.9125C40.9431 25.2775 40.5561 25.5801 40.0992 25.7941C39.6305 26.0189 39.1758 26.2631 38.7368 26.5258C38.3176 26.7771 37.9228 27.0552 37.5561 27.3574C37.3729 27.5207 37.2314 27.7128 37.1404 27.9224C37.0493 28.1319 37.0105 28.3545 37.0263 28.5768C37.0263 28.8707 37.2004 29.1146 37.5561 29.3084C38.4387 29.7676 39.1387 30.4308 39.5694 31.2156C39.963 31.966 40.402 32.6976 40.8712 33.4167C41.3405 34.1296 41.9535 34.7299 42.7028 35.2239C43.4521 35.7116 44.6177 35.9555 46.1844 35.9555H46.5477C48.122 35.8929 49.6206 35.549 51.0435 34.93C52.4588 34.3109 53.8818 33.6606 55.2971 32.9727C55.5436 32.8582 55.802 32.762 56.0691 32.6851C56.3441 32.6041 56.602 32.488 56.8335 32.3412L61.1477 29.5585C61.2228 29.3489 61.2834 29.136 61.3293 28.9207C61.3753 28.6921 61.4157 28.4628 61.4504 28.2329C61.4637 27.922 61.3578 27.6156 61.1477 27.3574C60.9541 27.1306 60.7163 26.9319 60.4438 26.7696C60.1412 26.5992 59.798 26.4841 59.4372 26.432C59.0764 26.3721 58.7221 26.2885 58.3775 26.1818C57.4341 26.0216 56.5323 25.7253 55.7134 25.3064C54.9004 24.8893 54.0252 24.5614 53.1098 24.3309C52.9584 24.2934 52.8373 24.1996 52.754 24.037C52.6639 23.8445 52.5856 23.6483 52.5194 23.4492C52.4415 23.2431 52.4208 23.0251 52.4588 22.8114C52.502 22.6476 52.4808 22.4768 52.3983 22.3237C52.3983 21.936 52.4361 21.5295 52.5194 21.1043C52.6011 20.6738 52.7809 20.2601 53.0492 19.8849C53.2799 19.5375 53.6035 19.2381 53.9953 19.0095C54.4619 18.7845 54.9915 18.6638 55.5317 18.6593C56.7579 18.6593 57.6434 19.0345 58.1959 19.7849C58.7484 20.5353 59.0436 21.3482 59.0814 22.2236C59.0912 22.6127 58.9901 22.9983 58.7863 23.3492C58.5842 23.683 58.4805 24.0515 58.4835 24.4247C58.4835 24.6873 58.5895 24.8624 58.7863 24.9625C59.0246 25.0705 59.2875 25.1365 59.5583 25.1563C60.4665 25.1563 61.0493 24.9812 61.3293 24.6248C61.6479 24.1283 61.8093 23.5734 61.7986 23.0115C61.7986 22.2611 61.7229 21.4295 61.5715 20.5165C61.4217 19.6332 61.0997 18.7759 60.6179 17.9777C60.1768 17.2282 59.5532 16.5619 58.7863 16.0205C57.965 15.4814 56.9353 15.206 55.8875 15.2451C53.8439 15.2451 52.3605 15.6641 51.4522 16.5145C50.544 17.3587 50.0747 18.6281 50.0369 20.3227C50.0369 20.8104 50.0747 21.2981 50.1504 21.7859C50.2261 22.2799 50.2715 22.7676 50.2715 23.2554C50.2715 23.418 50.2488 23.4992 50.211 23.4992C50.0882 23.4772 49.9688 23.4436 49.8552 23.3992C49.6194 23.3202 49.3848 23.2389 49.1513 23.1553C48.862 23.0544 48.5634 22.9728 48.2582 22.9115C47.7552 22.8105 47.2329 22.7935 46.7218 22.8614C46.408 22.8943 46.092 22.911 45.7757 22.9115C45.2232 22.9115 44.9432 22.8302 44.9432 22.6676C44.9432 22.1798 44.9129 21.5608 44.8296 20.8104C44.7539 20.06 44.5572 19.3097 44.2393 18.5593C43.975 17.8917 43.5758 17.2658 43.0586 16.7084C42.5817 16.2206 41.8778 15.958 40.9318 15.9267C40.2962 15.9146 39.68 16.1075 39.2137 16.4645C38.7279 16.8358 38.3098 17.2634 37.9724 17.7339C37.6097 18.2419 37.3875 18.8099 37.3215 19.3972C37.258 19.9197 37.1798 20.441 37.0869 20.9605C37.1172 21.8232 37.2956 22.678 37.6167 23.4992C37.8135 24.0183 38.033 24.4747 38.2676 24.8687C38.5022 25.2564 38.7823 25.4502 39.1001 25.4502C39.2894 25.4502 39.5543 25.3377 39.8646 25.1126C40.1825 24.8812 40.3414 24.6748 40.3414 24.4747C40.3414 24.3747 40.2809 24.3122 40.1598 24.2809C40.0453 24.2483 39.9251 24.2314 39.804 24.2309C39.5316 24.2309 39.2894 24.1183 39.0926 23.8869C38.8898 23.6472 38.7316 23.3838 38.6233 23.1053C38.4991 22.7983 38.3805 22.4898 38.2676 22.1798C38.0319 21.3362 38.18 20.4503 38.6839 19.6911C39.0396 19.1658 39.6905 18.8907 40.6366 18.8594V18.8594ZM27.7396 94.9225C28.6856 94.9225 29.6166 94.8599 30.5248 94.7224C31.4239 94.5946 32.2864 94.3295 33.0679 93.9407C33.8174 93.5825 34.4308 93.0583 34.839 92.4275C35.2696 91.6948 35.5118 90.8964 35.5504 90.0825C35.5505 89.5009 35.4302 88.9236 35.1947 88.3754C34.9542 87.8162 34.615 87.2894 34.1881 86.8122C33.7209 86.2005 33.2078 85.6136 32.6516 85.055C32.0952 84.4945 31.5821 83.9055 31.1152 83.2916C30.3791 82.3979 29.6474 81.5016 28.9203 80.6028C28.2164 79.7274 27.5049 78.8019 26.801 77.8202C26.1787 76.9882 25.5856 76.1416 25.0224 75.2814C24.4437 74.4033 23.7699 73.5703 23.0091 72.7926C22.5287 72.2971 21.9744 71.8538 21.3592 71.4732C20.7272 71.0808 19.9547 70.874 19.1643 70.8854C18.3397 70.8754 17.5404 71.1208 16.9239 71.5733C16.2193 72.0806 15.5662 72.6349 14.9712 73.2304C14.2733 73.9061 13.5224 74.5432 12.7233 75.1376C11.8908 75.7566 10.8312 76.2444 9.52934 76.6008C8.64838 76.796 7.83801 77.1651 7.16791 77.6763C6.6154 78.1328 6.33536 78.8332 6.33536 79.7774C6.33536 80.4277 6.39591 81.078 6.51701 81.7284C6.63054 82.3787 6.71379 83.0353 6.75164 83.6856C6.75164 84.561 6.60026 85.3927 6.27481 86.1743C5.96951 86.9134 5.81104 87.6884 5.80555 88.4692C5.80555 89.3509 6.18398 89.97 6.92571 90.3264C7.68258 90.6891 8.5227 90.933 9.46879 91.058C10.6571 91.2269 11.7772 91.3519 12.8444 91.452C13.904 91.552 14.9485 91.7021 15.9778 91.8897C16.9996 92.0898 18.0214 92.2961 19.0507 92.5275C20.0725 92.7526 21.1624 93.1153 22.3053 93.6031C22.5323 93.6968 22.8956 93.8157 23.3649 93.9407L24.9619 94.3784C25.5522 94.5473 26.1047 94.6786 26.6194 94.7724C26.9857 94.8536 27.361 94.9039 27.7396 94.9225V94.9225ZM49.386 89.057C50.491 89.057 51.6717 88.9632 52.9357 88.7631C55.509 88.3647 57.9978 87.6569 60.3227 86.6621C61.4051 86.2062 62.4338 85.6682 63.3956 85.055C63.4912 84.966 63.5726 84.8673 63.6378 84.7611C63.7131 84.6355 63.7715 84.5034 63.8118 84.3672V84.3172C64.0465 83.6043 64.2433 82.8164 64.4022 81.9722C64.5662 81.1122 64.705 80.249 64.8185 79.3834C64.9329 78.518 65.0717 77.6548 65.2348 76.7946C65.3861 75.9505 65.5299 75.1188 65.6435 74.3059C65.8024 73.4305 65.9992 72.58 66.2338 71.7671C66.476 70.9542 66.7863 70.1851 67.1799 69.466C67.569 68.7579 68.11 68.1138 68.7769 67.565C69.5531 66.947 70.4293 66.4209 71.3805 66.0018V65.9017L71.32 65.7579C71.3332 65.4263 71.4562 65.104 71.6757 64.8262C71.9407 64.4672 72.2366 64.1245 72.5612 63.8007C72.8763 63.4718 73.2579 63.1904 73.689 62.969C74.0828 62.7739 74.4985 62.6106 74.9302 62.4812C74.6916 61.6955 74.4342 60.9137 74.1582 60.1363C73.8841 59.3626 73.6468 58.5804 73.4468 57.7914C73.2531 56.7929 73.0183 55.8002 72.7429 54.8149C72.5236 54.0507 72.2455 53.2988 71.9103 52.5638C71.5715 51.8475 71.1129 51.174 70.548 50.5628C69.9652 49.9125 69.231 49.1246 68.3682 48.2179C68.0386 47.9135 67.7399 47.5872 67.4751 47.2424C67.2696 46.8548 67.1516 46.4394 67.1269 46.0168C67.0326 45.5892 66.9139 45.1656 66.7712 44.7474C66.2396 43.1638 65.6285 41.5992 64.9396 40.0575C64.576 39.2344 64.1409 38.434 63.6378 37.6626C63.2357 37.0449 62.8014 36.4419 62.336 35.8554C61.9424 35.3677 61.5261 35.1238 61.0947 35.1238C60.1486 35.1238 59.0209 35.4365 57.7191 36.0555C56.4248 36.6746 55.0398 37.3562 53.5866 38.1066C52.1258 38.8569 50.7105 39.5573 49.3254 40.2076C47.9479 40.8579 46.7067 41.1643 45.6016 41.1331C44.4224 41.1324 43.277 40.8067 42.3471 40.2076C41.3448 39.5766 40.4309 38.8551 39.6224 38.0565C38.7974 37.2436 38.1086 36.5433 37.5561 35.9555C37.0036 35.3677 36.5949 35.0425 36.3149 34.98C36.0046 34.98 35.8229 35.1738 35.7851 35.5615C35.7429 36.0005 35.7227 36.4406 35.7245 36.8809V37.7126C35.7245 37.9127 35.6867 38.0378 35.6034 38.1066C35.172 38.8569 34.6952 39.5885 34.1881 40.3014C33.6734 41.0205 33.1663 41.7521 32.6516 42.5025C31.6321 43.9445 31.0625 45.5733 30.9941 47.2424C30.9941 47.7301 31.0319 48.2179 31.1152 48.7056C31.1909 49.1933 31.3877 49.6686 31.7055 50.1251L31.5845 50.3127C31.2806 50.6612 30.944 50.9895 30.5778 51.2944C30.2049 51.6083 29.8702 51.9518 29.5787 52.3199C28.131 54.0868 27.087 56.0578 26.4983 58.1353C25.9079 60.2176 25.5901 62.3374 25.5522 64.4822C25.5522 65.0388 25.5976 65.5953 25.6733 66.1456C25.749 66.7021 25.7944 67.2524 25.7944 67.8089C25.7921 67.9892 25.7719 68.1691 25.7339 68.3467C25.6958 68.5243 25.6756 68.7041 25.6733 68.8844C26.5146 68.9628 27.324 69.1957 28.0423 69.566C28.9506 69.9912 29.9345 70.529 30.9941 71.1793C32.0537 71.8297 33.0679 72.58 34.014 73.4305C34.9601 74.2746 35.8607 75.1 36.7311 75.9192C37.6015 76.7321 38.2297 77.545 38.6233 78.3579C39.0169 79.1708 39.2742 79.8399 39.3877 80.3589C39.4081 80.737 39.3347 81.1145 39.172 81.4683C39.0093 81.8221 38.7608 82.1447 38.4417 82.4162C37.7629 82.9632 36.9605 83.3945 36.0802 83.6856C36.7539 84.6611 37.5788 85.4927 38.5628 86.1743C39.5467 86.8622 40.6139 87.4125 41.7567 87.8377C42.8996 88.2629 44.1409 88.5693 45.4805 88.7631C46.8202 88.9632 48.1296 89.057 49.386 89.057V89.057ZM73.0986 95.998C73.9236 95.998 74.7334 95.898 75.5206 95.7041C76.7134 95.4216 77.8485 94.9937 78.8886 94.4347C79.918 93.8782 80.8565 93.1966 81.7269 92.3774C83.783 90.4175 86.2985 88.8221 89.1215 87.6876L91.0742 86.956C91.7442 86.7147 92.394 86.4368 93.0194 86.1243C93.4711 85.8879 93.8899 85.6111 94.2682 85.2989C94.4587 85.1467 94.6093 84.9639 94.7109 84.7617C94.8124 84.5595 94.8627 84.3422 94.8585 84.1233C94.859 83.8718 94.7972 83.6228 94.6769 83.3917C94.5357 83.1315 94.3579 82.8859 94.1471 82.6601C93.6077 82.0396 93.0952 81.4035 92.6106 80.7529C92.1724 80.161 91.7951 79.5398 91.4829 78.8957L90.5368 76.9447C90.1956 76.2285 89.9173 75.4929 89.7043 74.7436C89.6222 74.5121 89.483 74.2971 89.2956 74.1121C88.9151 73.6421 88.3955 73.2604 87.7861 73.0032C87.1767 72.746 86.4978 72.6218 85.814 72.6426C85.1081 72.6404 84.4139 72.7914 83.8007 73.0803L81.7874 74.012C81.0867 74.3331 80.3776 74.6417 79.6607 74.9375C78.9634 75.2273 78.1933 75.3773 77.4128 75.3752C76.7149 75.4004 76.027 75.2308 75.46 74.8937C74.9159 74.5367 74.4718 74.0866 74.1582 73.5743C73.8217 73.0527 73.526 72.5138 73.2727 71.961L72.5612 70.3477C72.253 70.7659 71.8983 71.1595 71.5016 71.5233C71.0964 71.8959 70.7759 72.3259 70.5555 72.7926C70.0409 73.7681 69.723 74.8562 69.6095 76.063C69.4127 77.9515 69.1553 79.7899 68.8375 81.5845C68.5136 83.4144 67.9814 85.215 67.248 86.9622C67.0388 87.5209 66.8795 88.0914 66.7712 88.6693C66.6537 89.268 66.5729 89.8711 66.529 90.4765C66.529 92.071 67.1269 93.3904 68.3076 94.4347C69.4884 95.4727 71.0853 95.998 73.0986 95.998V95.998Z" fill="#007AFF"/>
</svg>
