<svg width="100" height="100" viewBox="0 0 100 100" fill="none" xmlns="http://www.w3.org/2000/svg">
<g clip-path="url(#clip0_3_37)">
<path d="M84.2875 65.8042C84.7093 65.5616 85.0599 65.2125 85.3042 64.7917C85.5489 64.3701 85.6782 63.8916 85.6792 63.4042L85.7292 47.3292C85.7302 46.8418 85.8595 46.3632 86.1042 45.9417C86.3496 45.5203 86.7017 45.1711 87.125 44.9292L95.8333 39.9167C96.2558 39.6751 96.7342 39.5486 97.2208 39.55C97.7082 39.5512 98.1867 39.6805 98.6083 39.925C99.03 40.1677 99.3806 40.5168 99.625 40.9375C99.8682 41.3594 99.9961 41.838 99.9958 42.325V71.55C99.9955 72.0387 99.8662 72.5187 99.6212 72.9415C99.3761 73.3643 99.0239 73.7151 98.6 73.9583L65.7125 92.85C65.2926 93.0905 64.8172 93.217 64.3333 93.217C63.8495 93.217 63.374 93.0905 62.9542 92.85L37.1458 78.0917C36.7206 77.849 36.367 77.4983 36.1208 77.075C35.8749 76.6509 35.7456 76.1694 35.7458 75.6792V60.9417C35.7458 60.925 35.7625 60.9167 35.7792 60.925C35.7958 60.9333 35.8125 60.925 35.8125 60.9042V60.8875C35.8125 60.875 35.8208 60.8667 35.8292 60.8583L57.0875 48.65C57.1042 48.6375 57.0958 48.6083 57.075 48.6083C57.0718 48.6083 57.0686 48.6076 57.0657 48.6061C57.0628 48.6047 57.0603 48.6026 57.0583 48.6C57.0565 48.5977 57.0552 48.595 57.0545 48.5921C57.0537 48.5892 57.0536 48.5862 57.0542 48.5833L57.0958 34.1375C57.0978 33.6482 56.9705 33.167 56.7269 32.7427C56.4832 32.3184 56.1319 31.9659 55.7083 31.7208C55.2859 31.4769 54.8066 31.3485 54.3188 31.3485C53.8309 31.3485 53.3517 31.4769 52.9292 31.7208L37.1333 40.8292C36.7118 41.0715 36.2341 41.1991 35.7479 41.1991C35.2617 41.1991 34.784 41.0715 34.3625 40.8292L18.5125 31.7042C18.0904 31.4619 17.612 31.3348 17.1253 31.3354C16.6386 31.3361 16.1606 31.4646 15.7392 31.708C15.3177 31.9514 14.9676 32.3013 14.7238 32.7225C14.48 33.1437 14.3511 33.6216 14.35 34.1083V60.2208C14.3502 60.7076 14.2225 61.1859 13.9797 61.6078C13.7369 62.0298 13.3876 62.3805 12.9667 62.625C12.5464 62.869 12.0693 62.9983 11.5833 63C11.0967 63.0014 10.6183 62.8749 10.1958 62.6333L1.40001 57.6042C0.974747 57.3615 0.62115 57.0108 0.375006 56.5875C0.12838 56.1622 -0.00102085 55.6791 6.0648e-06 55.1875L0.0791727 9.55C0.0806837 9.06391 0.209664 8.58671 0.453239 8.16604C0.696814 7.74538 1.04646 7.39595 1.46729 7.15265C1.88811 6.90935 2.36539 6.78068 2.85149 6.77948C3.33758 6.77828 3.81549 6.9046 4.23751 7.14583L34.3625 24.45C34.784 24.6924 35.2617 24.8199 35.7479 24.8199C36.2341 24.8199 36.7118 24.6924 37.1333 24.45L67.25 7.14583C67.6724 6.90406 68.1509 6.77761 68.6375 6.77917C69.1249 6.78014 69.6035 6.90948 70.025 7.15417C70.4472 7.39801 70.7978 7.74863 71.0417 8.17083C71.2833 8.59326 71.4097 9.07171 71.4083 9.55833V55.2083C71.4083 55.6958 71.2833 56.175 71.0375 56.6C70.7925 57.0227 70.4404 57.3734 70.0167 57.6167L54.2458 66.7C53.8216 66.9444 53.4694 67.2966 53.225 67.7208C52.9811 68.144 52.8532 68.6241 52.8542 69.1125C52.8546 69.6013 52.984 70.0813 53.2292 70.5042C53.4763 70.9281 53.8314 71.2789 54.2583 71.5208L62.9583 76.475C63.3777 76.7125 63.8514 76.8374 64.3333 76.8375C64.8189 76.8369 65.2959 76.709 65.7167 76.4667L84.2875 65.8V65.8042ZM86.1125 24.8542C86.112 25.3444 86.2414 25.826 86.4875 26.25C86.7358 26.6745 87.0924 27.0253 87.5208 27.2667C87.9477 27.5079 88.4309 27.6318 88.9212 27.626C89.4115 27.6201 89.8915 27.4847 90.3125 27.2333L98.65 22.2333C99.0611 21.9868 99.4013 21.638 99.6375 21.2208C99.8748 20.8029 99.9997 20.3306 100 19.85V9.66667C99.999 9.17608 99.8682 8.69449 99.6208 8.27083C99.3728 7.84714 99.017 7.49671 98.5896 7.25519C98.1622 7.01367 97.6784 6.88968 97.1875 6.89583C96.6972 6.90133 96.217 7.03646 95.7958 7.2875L87.4625 12.2875C87.0499 12.5335 86.7082 12.8824 86.4708 13.3C86.2351 13.7184 86.1117 14.1906 86.1125 14.6708V24.8583V24.8542Z" fill="#007AFF"/>
</g>
<defs>
<clipPath id="clip0_3_37">
<rect width="100" height="100" fill="white"/>
</clipPath>
</defs>
</svg>
