<svg width="100" height="100" viewBox="0 0 100 100" fill="none" xmlns="http://www.w3.org/2000/svg">
<path d="M68.3542 22.9208C67.875 22.9208 67.55 22.9792 67.2125 23.0583V23.1125H67.2708C67.4958 23.5458 67.8792 23.8625 68.1625 24.25C68.3875 24.6958 68.5792 25.1417 68.8042 25.5833L68.8625 25.5208C69.2542 25.2458 69.4458 24.8042 69.4458 24.1333C69.2792 23.9375 69.2542 23.7417 69.1125 23.55C68.9458 23.2708 68.5875 23.1333 68.3625 22.9125L68.3542 22.9208ZM24.0417 77.8958H20.1792C20.0705 71.7574 19.6952 65.6266 19.0542 59.5208H19.0208L13.1458 77.8958H10.2083L4.375 59.5208H4.33333C3.87706 65.6362 3.6061 71.764 3.52083 77.8958H0C0.229167 69.7042 0.8 62.0208 1.70833 54.8542H6.5L12.0625 71.7875H12.0958L17.7083 54.8542H22.2708C23.2792 63.25 23.8708 70.9375 24.0542 77.8958H24.0417ZM40.7792 60.8958C39.2042 69.4167 37.1292 75.6167 34.5625 79.4792C32.5542 82.4625 30.3542 83.95 27.9667 83.95C27.3292 83.95 26.55 83.7583 25.6083 83.375V81.3167C26.0667 81.3875 26.6083 81.425 27.2167 81.425C28.3333 81.425 29.2292 81.1125 29.9125 80.5C30.7333 79.75 31.1417 78.9083 31.1417 77.9792C31.1417 77.3333 30.8208 76.0208 30.1833 74.0458L25.9583 60.8958H29.75L32.7792 70.7292C33.4625 72.9625 33.75 74.5208 33.6333 75.4083C35.3 70.975 36.4583 66.1292 37.1125 60.8958H40.7792ZM92.1333 77.8958H81.175V54.8542H84.8625V75.0625H92.1333V77.8958ZM78.3 78.4583L74.0667 76.375C74.4417 76.0583 74.8042 75.7167 75.1292 75.3333C76.9333 73.225 77.8292 70.0917 77.8292 65.9458C77.8292 58.3208 74.8375 54.5042 68.85 54.5042C65.9167 54.5042 63.625 55.4708 61.975 57.4083C60.1833 59.525 59.2833 62.6417 59.2833 66.7625C59.2833 70.8125 60.075 73.7875 61.675 75.6792C63.1333 77.3875 65.3292 78.2417 68.2708 78.2417C69.3708 78.2417 70.3792 78.1042 71.2917 77.8333L76.8125 81.05L78.3125 78.4583H78.3ZM64.5833 73.2833C63.6458 71.7833 63.1792 69.3667 63.1792 66.05C63.1792 60.2458 64.9458 57.3417 68.4708 57.3417C70.3167 57.3417 71.6792 58.0375 72.5417 59.425C73.475 60.9333 73.9417 63.325 73.9417 66.6042C73.9417 72.4542 72.175 75.3875 68.65 75.3875C66.7958 75.3875 65.4417 74.6917 64.575 73.3042L64.5833 73.2833ZM57.675 71.5125C57.675 73.4708 56.9583 75.0792 55.525 76.3292C54.0917 77.5792 52.1792 78.2042 49.7583 78.2042C47.4958 78.2042 45.325 77.4875 43.2042 76.0583L44.1917 74.075C46.0167 74.9917 47.6625 75.4417 49.15 75.4417C50.5333 75.4417 51.6208 75.1375 52.4125 74.525C52.8082 74.2267 53.1277 73.8391 53.3449 73.3937C53.5622 72.9484 53.671 72.4579 53.6625 71.9625C53.6625 70.5875 52.7042 69.4208 50.9625 68.4417C49.3458 67.5542 46.1167 65.7042 46.1167 65.7042C44.3583 64.425 43.4833 63.0542 43.4833 60.8C43.4833 58.925 44.1375 57.425 45.4417 56.2792C46.7542 55.1208 48.4417 54.55 50.525 54.55C52.6583 54.55 54.6083 55.1167 56.3583 56.2583L55.4708 58.2417C54.0725 57.6274 52.5647 57.3015 51.0375 57.2833C49.8583 57.2833 48.9458 57.5667 48.3125 58.1417C47.9911 58.4079 47.732 58.7414 47.5535 59.1186C47.3749 59.4959 47.2813 59.9077 47.2792 60.325C47.2792 61.6917 48.2542 62.8667 50.0542 63.8667C51.6917 64.7625 55 66.6583 55 66.6583C56.8042 67.9292 57.7 69.2833 57.7 71.525L57.675 71.5125ZM96.7667 47.1292C94.5375 47.0708 92.8083 47.2958 91.3625 47.9125C90.9458 48.0792 90.2792 48.0792 90.2208 48.6083C90.45 48.8292 90.4833 49.1917 90.6792 49.5C91.0125 50.0583 91.5875 50.8042 92.1208 51.1958C92.7042 51.6542 93.2875 52.0958 93.9 52.4875C94.9833 53.1542 96.2125 53.55 97.275 54.2208C97.8792 54.6125 98.4958 55.1083 99.1083 55.525C99.4125 55.7333 99.6083 56.1083 100 56.2417V56.1583C99.8083 55.9083 99.75 55.5458 99.5625 55.2667C99.2833 54.9875 99.0042 54.7375 98.7292 54.4625C97.9111 53.3844 96.9348 52.4362 95.8333 51.65C94.9417 51.0417 92.9917 50.1917 92.625 49.1708L92.5708 49.1125C93.1792 49.0583 93.9042 48.8375 94.4875 48.6708C95.4333 48.4208 96.3 48.475 97.2792 48.2292C97.7208 48.1167 98.1667 47.9792 98.6125 47.8375V47.5875C98.1125 47.0875 97.7375 46.4083 97.2208 45.9417C95.7787 44.6811 94.2407 43.5346 92.6208 42.5125C91.7458 41.9542 90.6375 41.5958 89.7167 41.1208C89.3833 40.9542 88.825 40.8708 88.6333 40.5917C88.1333 39.9833 87.8417 39.175 87.4875 38.45C86.6693 36.8629 85.9091 35.2465 85.2083 33.6042C84.7083 32.5125 84.4042 31.425 83.7917 30.425C80.9167 25.6875 77.8042 22.8167 73.0167 20.0083C71.9875 19.425 70.7542 19.175 69.45 18.8667C68.7542 18.8333 68.0583 18.7833 67.3667 18.7542C66.9083 18.5583 66.4667 18.0292 66.075 17.775C64.4917 16.775 60.3917 14.6083 59.225 17.475C58.475 19.2833 60.3375 21.0667 60.9833 21.9833C61.4625 22.6208 62.0667 23.35 62.4 24.0667C62.5958 24.55 62.65 25.0458 62.8458 25.55C63.2875 26.775 63.7083 28.1417 64.2917 29.2875C64.5958 29.8708 64.9292 30.4833 65.3208 31.0083C65.5458 31.3125 65.9292 31.4542 66.0167 31.9542C65.625 32.5208 65.6 33.3458 65.375 34.0375C64.375 37.1917 64.7667 41.0917 66.1833 43.4125C66.6292 44.1042 67.6917 45.6375 69.1125 45.05C70.3625 44.55 70.0875 42.9667 70.4458 41.5708C70.5292 41.2375 70.475 41.0167 70.6458 40.7917V40.8542C71.0375 41.6375 71.4292 42.3833 71.7875 43.1667C72.6458 44.5333 74.1458 45.95 75.4 46.8958C76.0667 47.3958 76.5958 48.2625 77.4292 48.5708V48.4875H77.3667C77.1875 48.2458 76.95 48.1292 76.725 47.9333C76.1967 47.4162 75.7091 46.859 75.2667 46.2667C74.0927 44.6626 73.0517 42.9653 72.1542 41.1917C71.6958 40.3167 71.3125 39.375 70.9458 38.5125C70.7792 38.1792 70.7792 37.6792 70.5 37.5125C70.0833 38.1208 69.4708 38.65 69.1667 39.4C68.6375 40.6 68.5833 42.075 68.3833 43.6083C68.2708 43.6375 68.325 43.6083 68.2708 43.6667C67.3792 43.45 67.075 42.525 66.7417 41.75C65.9083 39.7708 65.7708 36.5917 66.4917 34.3125C66.6875 33.7292 67.5208 31.8875 67.1875 31.3292C67.0125 30.8 66.4625 30.4958 66.1583 30.0667C65.7671 29.5081 65.4321 28.9121 65.1583 28.2875C64.4917 26.7292 64.1583 25.0042 63.4333 23.4458C63.1 22.725 62.5167 21.9708 62.0417 21.3083C61.5125 20.5583 60.9292 20.0292 60.5083 19.1417C60.3708 18.8375 60.175 18.3333 60.3958 18C60.4542 17.775 60.5708 17.6875 60.7875 17.625C61.1542 17.325 62.1833 17.7167 62.5458 17.8833C63.575 18.3 64.4417 18.6917 65.3042 19.275C65.6958 19.55 66.1167 20.0792 66.6167 20.2167H67.2C68.0917 20.4125 69.0958 20.275 69.9292 20.5208C71.4083 20.9958 72.7417 21.6875 73.9375 22.4375C77.6222 24.7913 80.6193 28.0773 82.625 31.9625C82.9583 32.6042 83.1042 33.1917 83.4083 33.8583C83.9917 35.2333 84.7125 36.6208 85.3042 37.95C85.8875 39.2625 86.45 40.6 87.2875 41.6875C87.7042 42.2708 89.3792 42.575 90.1292 42.8792C90.6833 43.1292 91.5458 43.3583 92.0458 43.6625C93.0042 44.2458 93.9375 44.9125 94.8375 45.5542C95.2958 45.8708 96.6833 46.5667 96.7667 47.1292V47.1292Z" fill="#007AFF"/>
</svg>
