<svg width="100" height="100" viewBox="0 0 100 100" fill="none" xmlns="http://www.w3.org/2000/svg">
<path d="M50 7.70833C48.875 7.70833 47.7083 7.99999 46.75 8.54166L15.75 26.4583C13.75 27.625 12.5 29.7917 12.5 32.125V67.875C12.5 70.2083 13.75 72.375 15.75 73.5417L23.875 78.2083C27.8333 80.125 29.1667 80.1667 31 80.1667C36.8333 80.1667 40.2083 76.625 40.2083 70.4583V35.1667C40.2083 34.6667 39.7917 34.25 39.2917 34.25H35.4167C34.875 34.25 34.4583 34.6667 34.4583 35.1667V70.4583C34.4583 73.2083 31.625 75.9167 27.0833 73.625L18.5417 68.75C18.4014 68.6509 18.2867 68.5199 18.207 68.3678C18.1273 68.2156 18.0849 68.0467 18.0833 67.875V32.125C18.0833 31.75 18.25 31.4167 18.5417 31.25L49.5417 13.375C49.7917 13.2083 50.2083 13.2083 50.4583 13.375L81.4583 31.25C81.75 31.4167 81.9167 31.75 81.9167 32.125V67.875C81.9167 68.2083 81.75 68.5417 81.4583 68.75L50.4583 86.625C50.2083 86.7917 49.7917 86.7917 49.5 86.625L41.6667 81.875C41.3333 81.75 41 81.7083 40.7917 81.8333C38.5833 83.0833 38.1667 83.3333 36.125 83.9583C35.625 84.125 34.8333 84.4167 36.4167 85.2917L46.75 91.4167C47.75 92 48.8333 92.2917 50 92.2917C51.1667 92.2917 52.25 92 53.25 91.4167L84.25 73.5417C86.25 72.375 87.5 70.2083 87.5 67.875V32.125C87.5 29.7917 86.25 27.625 84.25 26.4583L53.25 8.54166C52.2917 7.99999 51.1667 7.70833 50 7.70833V7.70833ZM58.3333 33.3333C49.5 33.3333 44.2083 37.0417 44.2083 43.2917C44.2083 50 49.4583 51.9583 57.9583 52.7917C68.0833 53.7917 68.875 55.2917 68.875 57.2917C68.875 60.75 66.0833 62.2083 59.5833 62.2083C51.3333 62.2083 49.5833 60.1667 48.9583 56.0833C48.9145 55.8723 48.7995 55.6827 48.6327 55.5462C48.4658 55.4097 48.2572 55.3345 48.0417 55.3333H44.0417C43.5417 55.3333 43.1667 55.7083 43.1667 56.25C43.1667 61.4167 46 67.6667 59.5833 67.6667C69.375 67.6667 75 63.7917 75 57.0417C75 50.3333 70.5 48.5833 60.9583 47.2917C51.3333 46.0417 50.375 45.375 50.375 43.125C50.375 41.25 51.2083 38.75 58.3333 38.75C64.5833 38.75 67.0417 40.125 68 44.4167C68.0833 44.8333 68.4583 45.125 68.875 45.125H72.9167C73.125 45.125 73.375 45.0417 73.5417 44.8333C73.7083 44.6667 73.8333 44.4167 73.75 44.1667C73.1667 36.75 68.25 33.3333 58.3333 33.3333Z" fill="#007AFF"/>
</svg>
