<svg width="100" height="100" viewBox="0 0 100 100" fill="none" xmlns="http://www.w3.org/2000/svg">
<path d="M56.3624 0.409303C28.9718 -3.0907 3.9218 16.2437 0.409296 43.6374C-3.0907 71.0281 16.2437 96.0781 43.6374 99.5906C71.028 103.091 96.078 83.7562 99.5749 56.3624C103.091 28.9718 83.7593 3.9218 56.3624 0.409303ZM66.6499 31.6093C65.7218 31.6093 64.8405 31.9843 64.1905 32.6499L45.6374 51.1874L44.353 49.9156L41.6812 47.2312C59.9593 29.0031 63.2655 28.8218 66.6468 31.6062L66.6499 31.6093ZM46.403 51.8531L64.8905 33.3499C65.1342 33.096 65.4268 32.8943 65.7508 32.757C66.0748 32.6196 66.4233 32.5495 66.7751 32.551C67.127 32.5525 67.4749 32.6254 67.7977 32.7655C68.1206 32.9055 68.4115 33.1096 68.653 33.3656C68.8929 33.6216 69.078 33.9239 69.1969 34.2539C69.3159 34.584 69.3662 34.9348 69.3448 35.285C69.3235 35.6352 69.2309 35.9773 69.0727 36.2905C68.9145 36.6036 68.6941 36.8812 68.4249 37.1062L48.8468 54.2937L46.403 51.8531ZM47.7718 54.7531L43.1812 55.7437C43.1257 55.7513 43.0692 55.7412 43.0199 55.7148C42.9705 55.6885 42.9307 55.6471 42.9062 55.5968C42.8811 55.5486 42.8725 55.4936 42.8815 55.44C42.8905 55.3864 42.9167 55.3373 42.9562 55.2999L45.6405 52.6156L47.7718 54.7531ZM36.0843 52.8343L40.9843 47.9499L44.6468 51.6124L36.3937 53.3843C36.3242 53.4027 36.2506 53.3965 36.1851 53.3669C36.1197 53.3373 36.0664 53.2861 36.0343 53.2218C35.9985 53.1608 35.9839 53.0897 35.993 53.0195C36.002 52.9493 36.0341 52.8842 36.0843 52.8343ZM20.8999 78.0749C20.7218 78.0593 20.5874 77.8968 20.603 77.7343C20.6162 77.6603 20.651 77.5918 20.703 77.5374H20.7187L24.6562 73.5999L29.753 78.6968L20.8999 78.0749ZM31.003 72.8343C30.8158 72.9359 30.6669 73.0959 30.5789 73.29C30.4909 73.484 30.4686 73.7015 30.5155 73.9093L31.3624 77.5093C31.4968 78.0312 30.8593 78.3843 30.4843 77.9968H30.4687L25.3593 72.8843L41.0343 57.2249L48.6187 55.5843L52.2468 59.2312C47.0218 63.8187 39.8749 68.3937 31.0062 72.8343H31.003ZM52.9968 58.5624L49.4968 55.0624L69.0749 37.8749C69.253 37.7124 69.4155 37.5343 69.5624 37.3531C68.9624 42.9531 61.1155 50.8624 52.9968 58.5624ZM68.2468 31.6406H68.2312C61.4093 24.7874 71.0468 14.2562 78.4687 20.4406L71.7655 27.1656C71.7187 27.2123 71.6815 27.2678 71.6561 27.3289C71.6308 27.3901 71.6177 27.4556 71.6177 27.5218C71.6177 27.588 71.6308 27.6535 71.6561 27.7147C71.6815 27.7758 71.7187 27.8313 71.7655 27.8781L76.9562 33.0749C75.5373 33.7788 73.9331 34.019 72.3703 33.7616C70.8075 33.5042 69.365 32.7623 68.2468 31.6406V31.6406ZM78.9718 31.6406C78.6318 31.9834 78.2557 32.2883 77.8499 32.5499L72.8218 27.5218L79.1999 21.1249C80.5281 22.5675 81.2462 24.4683 81.2036 26.4287C81.1611 28.3891 80.3613 30.2569 78.9718 31.6406V31.6406ZM78.5624 25.2124C78.4621 25.284 78.3865 25.3851 78.3462 25.5015C78.3059 25.618 78.3028 25.7441 78.3374 25.8624C78.4889 26.161 78.5495 26.4975 78.5117 26.8302C78.4739 27.1629 78.3395 27.4772 78.1249 27.7343C78.0754 27.7944 78.0386 27.8639 78.0166 27.9386C77.9946 28.0133 77.9879 28.0917 77.997 28.169C78.006 28.2463 78.0306 28.3211 78.0692 28.3887C78.1079 28.4563 78.1598 28.5154 78.2218 28.5624C78.3214 28.6339 78.4399 28.6741 78.5624 28.6781C78.7405 28.6781 78.9093 28.6124 79.003 28.4812C79.3618 28.0496 79.5881 27.5235 79.6546 26.9663C79.7212 26.409 79.6251 25.8444 79.378 25.3406C79.3334 25.278 79.2767 25.2249 79.2113 25.1845C79.1459 25.1441 79.0731 25.1171 78.9971 25.1052C78.9212 25.0933 78.8436 25.0966 78.769 25.115C78.6943 25.1334 78.6241 25.1665 78.5624 25.2124V25.2124Z" fill="#007AFF"/>
</svg>
