<svg width="100" height="100" viewBox="0 0 100 100" fill="none" xmlns="http://www.w3.org/2000/svg">
<g clip-path="url(#clip0_2_20)">
<path d="M47.1625 69.2063C47.1156 69.3 47.0687 69.375 47.1625 69.2063V69.2063ZM86.0875 55.6125C82.9437 55.6125 79.8437 56.3313 77.025 57.7219C76.1031 55.8625 75.15 54.2375 74.9937 53.0188C74.8062 51.5969 74.6031 50.7531 74.8219 49.0656C75.0406 47.3781 76.025 44.9875 76.0094 44.8156C75.9937 44.6438 75.7906 43.7844 73.775 43.7688C71.7594 43.7531 70.025 44.1594 69.8219 44.6906C69.4652 45.6613 69.1882 46.6594 68.9937 47.675C68.6344 49.5031 64.9656 56.0344 62.8875 59.4406C62.2 58.1125 61.6219 56.9406 61.4969 56.0031C61.3094 54.5813 61.1062 53.7375 61.325 52.05C61.5437 50.3625 62.5281 47.9719 62.5125 47.8C62.4969 47.6281 62.2937 46.7688 60.2812 46.7531C58.2687 46.7375 56.5312 47.1438 56.3281 47.675C56.125 48.2063 55.9062 49.4563 55.5 50.6594C55.0937 51.8625 50.2031 62.7375 48.925 65.5656C48.2687 67.0031 47.7062 68.1594 47.3 68.9406C47.2375 69.0656 47.1906 69.1438 47.1594 69.2063C47.2062 69.1281 47.2375 69.05 47.2375 69.0813C46.8937 69.7531 46.6906 70.1281 46.6906 70.1281V70.1438C46.425 70.6438 46.1281 71.0969 45.9875 71.0969C45.8937 71.0969 45.6906 69.7844 46.0344 67.9875C46.7687 64.2063 48.5031 58.3313 48.4875 58.1281C48.4719 58.0188 48.8156 57.0031 47.3469 56.4563C45.925 55.9406 45.4094 56.8 45.2844 56.8C45.1594 56.8 45.0656 57.1125 45.0656 57.1125C45.0656 57.1125 46.6437 50.4875 42.0344 50.4875C39.1594 50.4875 35.1594 53.6438 33.1937 56.5031C31.9594 57.175 29.2875 58.6281 26.475 60.175L23.2406 61.9563C23.1625 61.8781 23.1 61.8 23.0219 61.7219C17.4281 55.7531 7.10313 51.5344 7.54063 43.5188C7.69688 40.5969 8.7125 32.925 27.3969 23.6125C42.7094 15.9875 54.95 18.0813 57.0594 22.7375C60.0906 29.3781 50.5125 41.7375 34.6125 43.5188C28.55 44.1906 25.3656 41.8469 24.5687 40.9719C23.7406 40.05 23.6156 40.0031 23.3031 40.175C22.7875 40.4563 23.1156 41.2688 23.3031 41.7531C23.7719 42.9875 25.725 45.175 29.0531 46.2688C31.975 47.2219 39.0812 47.7531 47.6719 44.425C57.325 40.7063 64.8406 30.3469 62.6344 21.675C60.3906 12.8625 45.7781 9.97188 31.9625 14.8781C23.7281 17.8 14.825 22.3938 8.42188 28.3781C0.812501 35.5031 -0.403124 41.7063 0.0968763 44.3C1.87813 53.5031 14.5625 59.5031 19.6375 63.9406L18.9344 64.3313C16.3875 65.5969 6.71875 70.6594 4.29688 76.0031C1.5625 82.0656 4.75 86.4094 6.84063 87.0031C13.3719 88.8156 20.0562 85.55 23.65 80.1906C27.2437 74.8313 26.8063 67.8313 25.15 64.6438C25.1344 64.5969 25.1031 64.5656 25.0875 64.5188C26.9624 63.4082 28.8532 62.3248 30.7594 61.2688C30.1344 62.9563 29.6813 64.9875 29.4469 67.925C29.1656 71.3625 30.5875 75.8156 32.4313 77.5656C33.2438 78.3313 34.225 78.3469 34.8375 78.3469C36.9937 78.3469 37.9625 76.5656 39.0406 74.4406C40.3687 71.8469 41.5406 68.8313 41.5406 68.8313C41.5406 68.8313 40.0719 76.9875 44.0875 76.9875C45.5562 76.9875 47.025 75.0969 47.6812 74.1281V74.1438C47.6812 74.1438 47.7125 74.0813 47.7906 73.9563C47.9469 73.7219 48.025 73.5813 48.025 73.5813V73.5344C48.6187 72.5188 49.9156 70.1906 51.8687 66.3469C54.4 61.3781 56.8187 55.175 56.8187 55.175C57.0531 56.5375 57.3781 57.8844 57.7875 59.2063C58.225 60.6906 59.1469 62.3156 59.8812 63.8938C59.2875 64.7063 58.9281 65.175 58.9281 65.175C58.9281 65.1875 58.9344 65.1969 58.9437 65.2063C58.475 65.8313 57.9437 66.5031 57.3969 67.1594C55.4 69.5344 53.0219 72.2531 52.7094 73.0344C52.3344 73.9563 52.4281 74.6438 53.1469 75.175C53.6781 75.5813 54.6156 75.6438 55.6 75.5656C57.3969 75.4406 58.6625 75.0031 59.2719 74.7219C60.3958 74.3192 61.4581 73.7617 62.4281 73.0656C64.3812 71.6281 65.5687 69.5656 65.4594 66.8469C65.3969 65.3469 64.9125 63.8469 64.3187 62.4406C64.4906 62.1906 64.6781 61.925 64.85 61.6594C66.8833 58.6255 68.7154 55.4614 70.3344 52.1875C70.5687 53.55 70.8906 54.8969 71.3031 56.2188C71.6781 57.4844 72.4125 58.875 73.0844 60.2344C70.1781 62.5938 68.3812 65.3281 67.7594 67.125C66.6031 70.4531 67.5094 71.9531 69.2125 72.2969C69.9781 72.4531 71.0719 72.0938 71.8844 71.75C73.0906 71.3469 74.2281 70.7625 75.2562 70.0156C77.2094 68.5781 79.1 66.5625 78.9719 63.8281C78.925 62.5938 78.5812 61.3594 78.1281 60.1719C80.5812 59.1406 83.7687 58.5781 87.8312 59.0469C96.5312 60.0625 98.2344 65.5 97.9062 67.7656C97.5781 70.0313 95.75 71.2969 95.1406 71.6719C94.5312 72.0469 94.3437 72.1875 94.3906 72.4688C94.4687 72.875 94.75 72.8594 95.2656 72.7656C95.9844 72.6406 99.8281 70.9219 100 66.7188C100.25 61.4063 95.1406 55.5625 86.0937 55.6094L86.0875 55.6125ZM19.0281 78.2219C16.1531 81.3625 12.125 82.55 10.3906 81.55C8.53125 80.4688 9.26563 75.8469 12.8094 72.5C14.9656 70.4688 17.7469 68.5938 19.5906 67.4375C20.0125 67.1875 20.6219 66.8125 21.3719 66.3594C21.4328 66.3203 21.4954 66.2838 21.5594 66.25C21.7 66.1563 21.8563 66.0781 22.0125 65.9844C23.3063 70.7344 22.0594 74.9219 19.0281 78.2188V78.2219ZM40.0219 63.9406C39.0219 66.3938 36.9156 72.6438 35.6313 72.3156C34.5375 72.0344 33.8656 67.2688 35.4125 62.5813C36.1937 60.2219 37.85 57.4094 38.8344 56.3156C40.4125 54.55 42.1469 53.9875 42.5531 54.6906C43.1 55.6125 40.6469 62.4094 40.0219 63.9406ZM57.3656 72.2219C56.9437 72.4406 56.5531 72.5813 56.3656 72.4719C56.225 72.3938 56.5375 72.0969 56.5375 72.0969C56.5375 72.0969 58.7094 69.7688 59.5687 68.7063C60.0687 68.0813 60.6469 67.3469 61.2719 66.5344C61.2719 66.6125 61.2875 66.6906 61.2875 66.7844C61.2687 69.5813 58.5812 71.4719 57.3625 72.2219H57.3656ZM70.7406 69.175C70.4281 68.9563 70.475 68.2219 71.5219 65.9406C71.9281 65.05 72.8656 63.55 74.4906 62.1125C74.675 62.6563 74.775 63.225 74.7875 63.8C74.7719 67.3156 72.2562 68.6281 70.7406 69.175V69.175Z" fill="#007AFF"/>
</g>
<defs>
<clipPath id="clip0_2_20">
<rect width="100" height="100" fill="white"/>
</clipPath>
</defs>
</svg>
