<svg width="100" height="100" viewBox="0 0 100 100" fill="none" xmlns="http://www.w3.org/2000/svg">
<g clip-path="url(#clip0_2_34)">
<path d="M90.625 40.625C87.85 40.625 85.3563 41.8312 83.6375 43.75H65.0875L78.2063 30.6312C80.1021 30.7372 81.9854 30.2649 83.6069 29.277C85.2285 28.2891 86.5118 26.832 87.2871 25.0987C88.0624 23.3655 88.2931 21.4376 87.9487 19.5703C87.6043 17.703 86.701 15.9844 85.3583 14.6417C84.0157 13.2991 82.297 12.3958 80.4297 12.0514C78.5624 11.7069 76.6346 11.9376 74.9013 12.7129C73.168 13.4882 71.711 14.7716 70.7231 16.3931C69.7351 18.0146 69.2629 19.8979 69.3688 21.7937L56.25 34.9125V16.3625C57.6652 15.0967 58.6627 13.4311 59.1105 11.586C59.5584 9.74086 59.4354 7.80327 58.7579 6.02958C58.0804 4.25589 56.8803 2.72972 55.3165 1.653C53.7526 0.576286 51.8987 -0.000213623 50 -0.000213623C48.1014 -0.000213623 46.2474 0.576286 44.6836 1.653C43.1197 2.72972 41.9197 4.25589 41.2422 6.02958C40.5647 7.80327 40.4417 9.74086 40.8895 11.586C41.3373 13.4311 42.3348 15.0967 43.75 16.3625V34.9125L30.6313 21.7937C30.7372 19.8979 30.2649 18.0146 29.277 16.3931C28.2891 14.7716 26.8321 13.4882 25.0988 12.7129C23.3655 11.9376 21.4376 11.7069 19.5704 12.0514C17.7031 12.3958 15.9844 13.2991 14.6417 14.6417C13.2991 15.9844 12.3958 17.703 12.0514 19.5703C11.707 21.4376 11.9377 23.3655 12.713 25.0987C13.4883 26.832 14.7716 28.2891 16.3931 29.277C18.0147 30.2649 19.898 30.7372 21.7938 30.6312L34.9125 43.75H16.3625C15.0967 42.3348 13.4311 41.3373 11.586 40.8895C9.74089 40.4417 7.8033 40.5646 6.02961 41.2421C4.25592 41.9196 2.72975 43.1197 1.65303 44.6835C0.576317 46.2474 -0.000183105 48.1013 -0.000183105 50C-0.000183105 51.8987 0.576317 53.7526 1.65303 55.3165C2.72975 56.8803 4.25592 58.0804 6.02961 58.7579C7.8033 59.4354 9.74089 59.5583 11.586 59.1105C13.4311 58.6627 15.0967 57.6652 16.3625 56.25H34.9125L21.7938 69.3688C19.898 69.2628 18.0147 69.7351 16.3931 70.723C14.7716 71.7109 13.4883 73.168 12.713 74.9013C11.9377 76.6345 11.707 78.5624 12.0514 80.4297C12.3958 82.297 13.2991 84.0156 14.6417 85.3583C15.9844 86.7009 17.7031 87.6042 19.5704 87.9486C21.4376 88.2931 23.3655 88.0624 25.0988 87.2871C26.8321 86.5118 28.2891 85.2284 29.277 83.6069C30.2649 81.9854 30.7372 80.1021 30.6313 78.2062L43.75 65.0875V83.6375C42.3348 84.9033 41.3373 86.5689 40.8895 88.414C40.4417 90.2591 40.5647 92.1967 41.2422 93.9704C41.9197 95.7441 43.1197 97.2703 44.6836 98.347C46.2474 99.4237 48.1014 100 50 100C51.8987 100 53.7526 99.4237 55.3165 98.347C56.8803 97.2703 58.0804 95.7441 58.7579 93.9704C59.4354 92.1967 59.5584 90.2591 59.1105 88.414C58.6627 86.5689 57.6652 84.9033 56.25 83.6375V65.0875L69.3688 78.2062C69.2629 80.1021 69.7351 81.9854 70.7231 83.6069C71.711 85.2284 73.168 86.5118 74.9013 87.2871C76.6346 88.0624 78.5624 88.2931 80.4297 87.9486C82.297 87.6042 84.0157 86.7009 85.3583 85.3583C86.701 84.0156 87.6043 82.297 87.9487 80.4297C88.2931 78.5624 88.0624 76.6345 87.2871 74.9013C86.5118 73.168 85.2285 71.7109 83.6069 70.723C81.9854 69.7351 80.1021 69.2628 78.2063 69.3688L65.0875 56.25H83.6375C84.6801 57.4156 85.9976 58.3019 87.4702 58.8282C88.9428 59.3544 90.5237 59.504 92.0689 59.2632C93.614 59.0224 95.0744 58.3989 96.317 57.4494C97.5597 56.5 98.545 55.2548 99.1835 53.8272C99.8219 52.3997 100.093 50.8351 99.9722 49.2759C99.8515 47.7168 99.3426 46.2126 98.4919 44.9004C97.6413 43.5882 96.4759 42.5096 95.1019 41.7629C93.7278 41.0161 92.1889 40.625 90.625 40.625V40.625Z" fill="#007AFF"/>
</g>
<defs>
<clipPath id="clip0_2_34">
<rect width="100" height="100" fill="white"/>
</clipPath>
</defs>
</svg>
