<svg width="100" height="100" viewBox="0 0 100 100" fill="none" xmlns="http://www.w3.org/2000/svg">
<path d="M0.950317 34.8752C0.950317 34.8752 -1.48302 33.096 1.43782 30.7294L8.25032 24.571C8.25032 24.571 10.1962 22.5002 12.2587 24.3044L75.0962 72.396V95.4544C75.0962 95.4544 75.067 99.0794 70.4712 98.6794L0.946151 34.871L0.950317 34.8752Z" fill="#007AFF"/>
<path d="M17.1503 49.7379L0.950335 64.6213C0.950335 64.6213 -0.716331 65.8713 0.950335 68.1088L8.47117 75.0254C8.47117 75.0254 10.2587 76.9629 12.8962 74.7546L30.067 61.5963L17.1503 49.7379Z" fill="#007AFF"/>
<path d="M45.5838 49.8585L75.2921 26.9335L75.0963 3.99604C75.0963 3.99604 73.8254 -1.01229 69.5963 1.59604L30.0671 37.9585L45.5838 49.8585V49.8585Z" fill="#007AFF"/>
<path d="M70.4674 98.7085C72.1924 100.492 74.2841 99.9085 74.2841 99.9085L97.4341 88.3794C100.397 86.3377 99.9799 83.8044 99.9799 83.8044V14.9502C99.9799 11.9252 96.9174 10.8794 96.9174 10.8794L76.8507 1.1002C72.4674 -1.6373 69.5966 1.59604 69.5966 1.59604C69.5966 1.59604 73.2882 -1.09146 75.0966 3.99604V95.0377C75.0966 95.6627 74.9632 96.2752 74.7007 96.8294C74.1716 97.9085 73.0257 98.9127 70.2757 98.496L70.4674 98.7085V98.7085Z" fill="#007AFF"/>
</svg>
