<svg width="100" height="100" viewBox="0 0 100 100" fill="none" xmlns="http://www.w3.org/2000/svg">
<path d="M89.4531 28.4344C93.0636 35.0482 94.9497 42.4649 94.9375 50C94.9375 66.5844 85.9687 81.0719 72.6062 88.85L86.3281 49.1531C88.9 42.7406 89.7469 37.6125 89.7469 33.0563C89.7469 31.3625 89.6344 29.8 89.4531 28.4344V28.4344ZM56.2 28.875C58.9031 28.7437 61.3281 28.4344 61.3281 28.4344C63.7531 28.125 63.4781 24.5594 61.05 24.6906C61.05 24.6906 53.7406 25.2438 49.0531 25.2438C44.625 25.2438 37.1719 24.625 37.1719 24.625C34.7469 24.4938 34.4219 28.1906 36.8625 28.3188C36.8625 28.3188 39.1094 28.5625 41.55 28.6938L48.55 47.8656L38.6719 77.375L22.3156 28.7406C25.0187 28.6281 27.4594 28.3344 27.4594 28.3344C29.8844 28.025 29.6094 24.4594 27.1812 24.5906C27.1812 24.5906 19.9062 25.175 15.2031 25.175C14.3719 25.175 13.3812 25.1437 12.3375 25.1094C20.4594 13.1125 34.3094 5.05625 50 5.05625C61.7031 5.05625 72.3469 9.51563 80.3563 16.8563C80.1594 16.8563 79.9812 16.825 79.7687 16.825C75.3594 16.825 72.2156 20.6656 72.2156 24.8C72.2156 28.5125 74.3656 31.6531 76.6437 35.3469C78.3531 38.3406 80.3375 42.2 80.3375 47.75C80.3375 51.5594 78.8719 56.05 76.9188 62.2531L72.4437 77.1781L56.2 28.8063V28.875ZM50 94.9375C45.5906 94.9375 41.325 94.3031 37.3031 93.1156L50.7812 53.9219L64.6 91.7813C64.6969 92.0094 64.8125 92.2031 64.925 92.4C60.13 94.0867 55.083 94.9458 50 94.9406V94.9375ZM5.04688 50C5.04688 43.4906 6.44687 37.2875 8.9375 31.7062L30.3719 90.4625C15.3969 83.1719 5.04688 67.7906 5.04688 50ZM50 0C22.4438 0 0 22.4438 0 50C0 77.5562 22.4438 100 50 100C77.5562 100 100 77.5562 100 50C100 22.4438 77.5562 0 50 0Z" fill="#007AFF"/>
</svg>
